# xmcd
#
# Track frame offsets: 
#        150
#        19560
#        34338
#        48463
#        67245
#        84874
#        105616
#        122389
#        140739
#        156333
#        174821
#        193380
#        210599
#        227968
#
# Disc length: 3263 seconds
#
# Revision: 0
# Processed by: cddbd v1.5.2PL0 Copyright (c) Steve Scherf et al.
# Submitted via: ExactAudioCopy v0.95b4
#
DISCID=c10cbd0e
DTITLE=Candice Graham - Rockin The Country
DYEAR=2007
DGENRE=Country
TTITLE0=Knockin' on Hollywood's Door
TTITLE1=Sparks Are Gonna Fly
TTITLE2=If You'd Rather Be Lonely
TTITLE3=Seasons Change
TTITLE4=Get Outta My Head
TTITLE5=I'M The Lucky One
TTITLE6=Are You Lonely
TTITLE7=Be A Woman
TTITLE8=Sweet Changes
TTITLE9=I Wanna Love You Tonight
TTITLE10=Without You
TTITLE11=Done Fightin'
TTITLE12=I Don't Need You Anymore
TTITLE13=Me And My Pink Cadillac
EXTD=
EXTT0=
EXTT1=
EXTT2=
EXTT3=
EXTT4=
EXTT5=
EXTT6=
EXTT7=
EXTT8=
EXTT9=
EXTT10=
EXTT11=
EXTT12=
EXTT13=
PLAYORDER=
